<svg width="1920" height="1000" viewBox="0 0 1920 1000" fill="none" xmlns="http://www.w3.org/2000/svg">
<g clip-path="url(#clip0_426_2272)">
<path opacity="0.2" d="M654.5 238.5C231 370 -46 958.333 -126 1116.5C-8.16666 996.833 178.676 530.558 588.5 434C962 346 993.5 821 1317 645.5C1664 457.251 1906.17 173.167 2010 -154.5C1894 157 1706.5 320.5 1431 450C1033.97 636.624 1042.74 117.948 654.5 238.5Z" fill="#C0D3F7"/>
<g opacity="0.2">
<path fill-rule="evenodd" clip-rule="evenodd" d="M558.821 302.794C553.558 305.833 551.756 312.558 554.794 317.82L564.794 335.141C567.833 340.404 574.558 342.206 579.821 339.167L597.141 329.167C602.404 326.129 604.206 319.404 601.167 314.141L591.167 296.82C588.129 291.558 581.404 289.756 576.141 292.794L558.821 302.794ZM559.99 314.82C558.609 312.428 559.428 309.372 561.821 307.99L579.141 297.99C581.534 296.609 584.59 297.428 585.971 299.82L595.971 317.141C597.353 319.534 596.534 322.59 594.141 323.971L576.821 333.971C574.428 335.353 571.372 334.534 569.99 332.141L559.99 314.82Z" fill="black"/>
<path fill-rule="evenodd" clip-rule="evenodd" d="M617.194 319.899C612.89 322.384 611.415 327.89 613.899 332.194L619.899 342.586C622.384 346.889 627.89 348.364 632.194 345.88L642.586 339.88C646.889 337.396 648.365 331.889 645.88 327.586L639.88 317.194C637.396 312.89 631.889 311.415 627.586 313.899L617.194 319.899ZM619.096 329.194C618.268 327.76 618.76 325.923 620.194 325.095L630.586 319.095C632.019 318.268 633.856 318.76 634.684 320.194L640.684 330.586C641.512 332.019 641.019 333.856 639.586 334.684L629.194 340.684C627.76 341.511 625.923 341.019 625.096 339.586L619.096 329.194Z" fill="black"/>
<path fill-rule="evenodd" clip-rule="evenodd" d="M599.363 299.017C596.879 294.713 598.355 289.207 602.658 286.722L613.05 280.722C617.353 278.238 622.86 279.713 625.344 284.017L631.344 294.409C633.829 298.712 632.353 304.219 628.05 306.703L617.658 312.703C613.355 315.188 607.848 313.712 605.363 309.409L599.363 299.017ZM605.658 291.919C604.224 292.746 603.732 294.583 604.56 296.017L610.56 306.409C611.387 307.842 613.224 308.335 614.658 307.507L625.05 301.507C626.483 300.679 626.976 298.842 626.148 297.409L620.148 287.017C619.321 285.583 617.483 285.091 616.05 285.919L605.658 291.919Z" fill="black"/>
<path fill-rule="evenodd" clip-rule="evenodd" d="M588.017 341.363C583.714 343.848 582.238 349.354 584.722 353.658L590.722 364.05C593.207 368.353 598.714 369.829 603.017 367.344L613.409 361.344C617.712 358.86 619.188 353.353 616.703 349.05L610.703 338.658C608.219 334.354 602.712 332.879 598.409 335.363L588.017 341.363ZM589.919 350.658C589.091 349.224 589.583 347.387 591.017 346.56L601.409 340.56C602.842 339.732 604.679 340.224 605.507 341.658L611.507 352.05C612.335 353.483 611.842 355.32 610.409 356.148L600.017 362.148C598.583 362.976 596.746 362.483 595.919 361.05L589.919 350.658Z" fill="black"/>
</g>
<g opacity="0.2">
<path d="M1340.27 227.274C1341.1 225.839 1340.61 224.004 1339.18 223.176C1337.74 222.348 1335.91 222.839 1335.08 224.274L1328.62 235.463L1322.94 232.19C1321.51 231.362 1319.67 231.854 1318.85 233.289C1318.02 234.724 1318.51 236.559 1319.95 237.387L1328.22 242.159C1329.65 242.987 1331.49 242.495 1332.31 241.061L1340.27 227.274Z" fill="black"/>
<path fill-rule="evenodd" clip-rule="evenodd" d="M1313.37 204.973C1312.94 203.372 1311.3 202.423 1309.7 202.851C1308.1 203.28 1307.15 204.925 1307.58 206.526L1307.84 207.493L1303.01 208.785C1297.14 210.358 1293.66 216.39 1295.23 222.261L1302.54 249.535C1303.06 251.483 1303.12 253.53 1302.72 255.513L1301.19 262.996C1300.14 268.099 1304.84 272.508 1309.86 271.162L1318.55 268.832L1319.27 271.516C1320.59 276.441 1325.65 279.36 1330.57 278.04L1372.66 266.764C1377.58 265.444 1380.5 260.389 1379.18 255.467L1368.94 217.243C1367.62 212.319 1362.57 209.399 1357.64 210.719L1356.44 211.041L1355.14 206.209C1353.57 200.337 1347.54 196.855 1341.67 198.428L1336.82 199.726L1336.56 198.759C1336.13 197.158 1334.49 196.208 1332.89 196.637C1331.29 197.066 1330.34 198.711 1330.77 200.311L1331.03 201.279L1313.63 205.94L1313.37 204.973ZM1332.58 207.075L1332.84 208.042C1333.27 209.642 1334.91 210.592 1336.51 210.163C1338.11 209.735 1339.06 208.09 1338.64 206.489L1338.38 205.522L1343.22 204.224C1345.89 203.508 1348.63 205.091 1349.35 207.761L1357.41 237.865C1358.08 240.346 1357.99 242.967 1357.17 245.4L1355.47 250.421C1354.94 252.007 1353.65 253.217 1352.03 253.651L1319.92 262.255L1308.31 265.367C1307.59 265.56 1306.92 264.927 1307.07 264.2L1308.6 256.708C1309.19 253.82 1309.1 250.834 1308.34 247.982L1301.03 220.708C1300.31 218.038 1301.9 215.296 1304.57 214.581L1309.39 213.289L1309.65 214.256C1310.08 215.857 1311.72 216.806 1313.32 216.378C1314.92 215.949 1315.87 214.304 1315.44 212.703L1315.18 211.736L1332.58 207.075ZM1363.21 236.312L1357.99 216.837L1359.19 216.514C1360.92 216.053 1362.68 217.072 1363.15 218.796L1373.39 257.02C1373.85 258.739 1372.83 260.506 1371.11 260.968L1329.02 272.245C1327.3 272.707 1325.53 271.687 1325.07 269.963L1324.35 267.28L1353.58 259.446C1357.14 258.494 1359.98 255.829 1361.16 252.341L1362.85 247.323C1364.06 243.769 1364.18 239.938 1363.21 236.312Z" fill="black"/>
</g>
<g opacity="0.2">
<path fill-rule="evenodd" clip-rule="evenodd" d="M187.81 630.932C192.286 622.472 203.208 620.299 211.166 624.498L211.233 624.533L211.297 624.57C219.522 629.331 222.414 639.689 217.394 647.686C212.608 655.31 202.44 658.798 194.326 653.704C186.658 648.89 183.431 639.211 187.81 630.932ZM193.114 633.738C195.774 628.709 202.786 626.885 208.329 629.785C213.769 632.959 215.407 639.568 212.313 644.496C208.973 649.816 202.347 651.655 197.516 648.623C192.241 645.311 190.347 638.969 193.114 633.738Z" fill="black"/>
<path d="M193.295 685.41C191.447 678.51 195.588 671.337 202.488 669.488L217.943 665.347C224.842 663.498 232.016 667.64 233.864 674.54C234.293 676.14 235.938 677.09 237.539 676.661C239.139 676.232 240.089 674.587 239.66 672.987C236.953 662.886 226.49 656.845 216.39 659.552L200.935 663.693C190.834 666.399 184.793 676.862 187.5 686.963C187.929 688.563 189.574 689.513 191.174 689.084C192.775 688.655 193.724 687.01 193.295 685.41Z" fill="black"/>
<path d="M236.415 653.151C235.987 651.55 236.936 649.905 238.537 649.476L250.128 646.37C258.296 644.182 266.31 648.808 268.499 656.977C268.928 658.577 267.978 660.222 266.378 660.651C264.777 661.08 263.132 660.13 262.703 658.53C261.372 653.562 256.649 650.835 251.681 652.166L240.09 655.272C238.489 655.701 236.844 654.751 236.415 653.151Z" fill="black"/>
<path fill-rule="evenodd" clip-rule="evenodd" d="M228.425 622.808C231.857 616.954 239.783 614.997 245.843 618.067C245.874 618.083 245.906 618.099 245.937 618.116C245.968 618.133 245.999 618.151 246.03 618.169C252.265 621.786 254.591 629.838 250.645 635.91C247.041 641.458 239.204 644.464 232.972 640.415C227.444 636.823 224.44 629.029 228.425 622.808ZM233.581 625.876C235.246 622.992 239.582 621.659 243.074 623.391C246.563 625.453 247.515 629.715 245.614 632.641C243.354 636.119 239.034 637.199 236.241 635.384C232.763 633.124 231.684 628.804 233.499 626.011C233.527 625.967 233.555 625.922 233.581 625.876Z" fill="black"/>
</g>
<g opacity="0.2">
<path fill-rule="evenodd" clip-rule="evenodd" d="M557.309 572.014C558.594 567.219 554.492 562.235 549.274 563.312C541.474 564.916 533.713 570.038 529.634 576.864C521.799 570.037 513.719 565.9 503.044 562.668C499.228 561.512 495.314 563.834 494.312 567.573L482.057 613.308C481.082 616.948 483.168 620.789 486.865 621.838C498.311 625.089 506.232 629.45 514.29 637.622C514.466 637.808 514.667 637.974 514.89 638.112C515.143 638.269 515.414 638.384 515.694 638.459L515.727 638.468C516.198 638.589 516.679 638.59 517.133 638.487C517.198 638.473 517.262 638.456 517.326 638.437C528.391 635.388 537.432 635.571 548.973 638.476L548.997 638.482C552.711 639.404 556.425 637.131 557.399 633.496L569.654 587.761C569.784 587.277 569.859 586.793 569.885 586.314C570.062 582.966 567.782 579.9 564.435 579.122C561.456 578.431 558.61 577.903 555.829 577.536L557.309 572.014ZM501.305 568.41C512.076 571.672 519.755 575.803 527.454 582.976L514.878 629.912C507.17 623.094 499.114 619.08 488.503 616.067C488.036 615.934 487.706 615.409 487.853 614.861L500.107 569.126C500.263 568.546 500.846 568.271 501.305 568.41ZM550.418 632.653C540.814 630.237 532.59 629.549 523.708 630.921C527.698 627.262 533.172 624.725 538.384 624.401C541.391 624.213 543.886 622.108 544.652 619.251L554.262 583.386C557.071 583.725 559.979 584.247 563.078 584.966C563.68 585.106 563.997 585.692 563.858 586.208L551.604 631.943C551.458 632.487 550.913 632.778 550.439 632.658L550.418 632.653ZM533.695 582.868C533.706 582.831 533.716 582.794 533.725 582.757L534.188 581.029C534.329 580.749 534.478 580.47 534.637 580.195C537.694 574.881 544.002 570.521 550.486 569.188C550.76 569.132 551.033 569.211 551.268 569.472C551.513 569.745 551.608 570.107 551.514 570.461L549.114 579.416L538.856 617.698C538.744 618.118 538.391 618.389 538.012 618.412C532.709 618.742 527.225 620.826 522.654 624.074L533.695 582.868Z" fill="black"/>
</g>
<g opacity="0.2">
<path fill-rule="evenodd" clip-rule="evenodd" d="M1327.82 458.766C1337.43 453.596 1349.21 456.748 1354.96 466.029L1354.99 466.081L1355.02 466.134C1360.62 475.85 1357.41 488.183 1347.63 493.445C1338.16 498.537 1325.7 495.899 1320.38 486.012C1315.29 476.54 1317.93 464.083 1327.82 458.766ZM1330.66 464.051C1337.47 460.387 1345.76 462.597 1349.84 469.16C1353.82 476.091 1351.43 484.587 1344.79 488.16C1337.81 491.912 1329.2 489.732 1325.67 483.17C1321.92 476.192 1324.1 467.579 1330.66 464.051Z" fill="black"/>
<path d="M1301.32 515.218C1303.48 507.183 1311.51 502.797 1319.25 504.869L1338.95 510.149C1346.99 512.302 1351.37 520.339 1349.3 528.073C1348.88 529.655 1349.82 531.281 1351.4 531.705C1352.98 532.128 1354.61 531.19 1355.03 529.608C1357.93 518.796 1351.77 507.445 1340.49 504.421L1320.78 499.142C1309.97 496.245 1298.62 502.4 1295.6 513.683C1295.17 515.265 1296.11 516.89 1297.69 517.314C1299.27 517.738 1300.9 516.799 1301.32 515.218Z" fill="black"/>
</g>
<g opacity="0.2">
<path d="M1554.56 168.284C1554.79 166.644 1553.65 165.124 1552.01 164.89C1550.37 164.656 1548.85 165.795 1548.62 167.436C1548.04 171.488 1549.4 175.576 1552.29 178.47C1555.19 181.364 1559.28 182.727 1563.33 182.148C1564.97 181.914 1566.11 180.394 1565.87 178.754C1565.64 177.114 1564.12 175.974 1562.48 176.208C1560.3 176.52 1558.1 175.786 1556.54 174.227C1554.98 172.669 1554.24 170.467 1554.56 168.284Z" fill="black"/>
<path fill-rule="evenodd" clip-rule="evenodd" d="M1545.61 151.98L1578.78 185.153C1582.08 188.453 1587.05 189.441 1591.36 187.657C1595.67 185.873 1598.48 181.667 1598.48 177.001L1598.48 170.479L1607.47 161.492C1612.54 156.427 1615.38 149.557 1615.38 142.393C1615.38 135.23 1612.54 128.36 1607.47 123.295C1596.92 112.746 1579.82 112.746 1569.27 123.295L1560.29 132.281L1553.76 132.284C1549.1 132.285 1544.89 135.097 1543.11 139.408C1541.32 143.719 1542.31 148.681 1545.61 151.98ZM1573.51 127.537C1581.72 119.332 1595.02 119.332 1603.23 127.537C1607.17 131.477 1609.38 136.821 1609.38 142.393C1609.38 147.966 1607.17 153.31 1603.23 157.25L1593.61 166.868C1592.91 167.428 1592.48 168.284 1592.48 169.209L1592.48 174.95L1592.48 176.999C1592.48 179.238 1591.13 181.257 1589.06 182.113C1587.27 182.854 1585.24 182.598 1583.71 181.488C1583.47 181.316 1583.24 181.124 1583.03 180.911L1549.85 147.737C1548.27 146.154 1547.8 143.772 1548.65 141.703C1549.51 139.634 1551.53 138.284 1553.77 138.283L1561.56 138.281C1562.5 138.28 1563.35 137.841 1563.9 137.155L1573.51 127.537Z" fill="black"/>
</g>
</g>
<defs>
<clipPath id="clip0_426_2272">
<rect width="1920" height="1000" fill="white"/>
</clipPath>
</defs>
</svg>
