<svg width="375" height="712" viewBox="0 0 375 712" fill="none" xmlns="http://www.w3.org/2000/svg">
<g clip-path="url(#clip0_426_2294)">
<path opacity="0.2" d="M94.4453 426.642C135.416 558.688 318.721 645.056 368 670C330.716 633.26 185.441 575.003 155.356 447.221C127.939 330.764 275.932 320.942 221.253 220.076C162.601 111.882 74.0897 36.375 -28 4.00006C69.0527 40.1686 119.994 98.6306 160.341 184.531C218.487 308.323 56.8854 305.589 94.4453 426.642Z" fill="#C0D3F7"/>
<g opacity="0.2">
<path fill-rule="evenodd" clip-rule="evenodd" d="M58.9102 117.897C56.2789 119.416 55.3779 122.779 56.8971 125.41L61.8971 134.07C63.4163 136.702 66.7789 137.603 69.4102 136.084L78.0705 131.084C80.7018 129.564 81.6028 126.202 80.0836 123.57L75.0836 114.91C73.5644 112.279 70.2018 111.378 67.5705 112.897L58.9102 117.897ZM59.4952 123.91C58.8044 122.714 59.2138 121.186 60.4102 120.495L69.0705 115.495C70.267 114.804 71.7948 115.214 72.4856 116.41L77.4856 125.07C78.1763 126.267 77.767 127.795 76.5705 128.486L67.9102 133.486C66.7138 134.176 65.186 133.767 64.4952 132.57L59.4952 123.91Z" fill="black"/>
<path fill-rule="evenodd" clip-rule="evenodd" d="M88.0968 126.45C85.9452 127.692 85.2074 130.445 86.4497 132.597L89.4497 137.793C90.6919 139.944 93.4452 140.682 95.5968 139.44L100.793 136.44C102.944 135.198 103.682 132.444 102.44 130.293L99.44 125.097C98.1978 122.945 95.4445 122.207 93.2929 123.45L88.0968 126.45ZM89.0477 131.097C88.6339 130.38 88.8801 129.462 89.5968 129.048L94.7929 126.048C95.5096 125.634 96.4282 125.88 96.842 126.597L99.842 131.793C100.256 132.51 100.01 133.428 99.2929 133.842L94.0968 136.842C93.3801 137.256 92.4615 137.01 92.0477 136.293L89.0477 131.097Z" fill="black"/>
<path fill-rule="evenodd" clip-rule="evenodd" d="M79.1817 116.008C77.9395 113.857 78.6772 111.103 80.8288 109.861L86.025 106.861C88.1765 105.619 90.9299 106.357 92.1721 108.508L95.1721 113.704C96.4143 115.856 95.6765 118.609 93.525 119.852L88.3288 122.852C86.1772 124.094 83.4239 123.356 82.1817 121.204L79.1817 116.008ZM82.3288 112.459C81.6121 112.873 81.366 113.792 81.7798 114.508L84.7798 119.704C85.1936 120.421 86.1121 120.667 86.8288 120.254L92.025 117.254C92.7417 116.84 92.9878 115.921 92.574 115.204L89.574 110.008C89.1602 109.292 88.2417 109.045 87.525 109.459L82.3288 112.459Z" fill="black"/>
<path fill-rule="evenodd" clip-rule="evenodd" d="M73.5083 137.182C71.3567 138.424 70.619 141.177 71.8612 143.329L74.8612 148.525C76.1034 150.677 78.8567 151.414 81.0083 150.172L86.2045 147.172C88.356 145.93 89.0938 143.177 87.8516 141.025L84.8516 135.829C83.6094 133.677 80.856 132.939 78.7045 134.182L73.5083 137.182ZM74.4593 141.829C74.0455 141.112 74.2916 140.194 75.0083 139.78L80.2045 136.78C80.9212 136.366 81.8397 136.612 82.2535 137.329L85.2535 142.525C85.6673 143.242 85.4212 144.16 84.7045 144.574L79.5083 147.574C78.7916 147.988 77.8731 147.742 77.4593 147.025L74.4593 141.829Z" fill="black"/>
</g>
<g opacity="0.2">
<path d="M372.637 489.637C373.051 488.92 372.806 488.002 372.088 487.588C371.371 487.174 370.453 487.42 370.039 488.137L366.809 493.732L363.972 492.095C363.254 491.681 362.337 491.927 361.923 492.644C361.509 493.362 361.755 494.279 362.473 494.693L366.609 497.08C367.326 497.494 368.243 497.248 368.657 496.53L372.637 489.637Z" fill="black"/>
<path fill-rule="evenodd" clip-rule="evenodd" d="M359.186 478.486C358.971 477.686 358.149 477.211 357.349 477.426C356.549 477.64 356.074 478.463 356.288 479.263L356.418 479.747L354.007 480.393C351.071 481.179 349.33 484.195 350.117 487.131L353.771 500.768C354.032 501.742 354.062 502.765 353.861 503.757L353.095 507.498C352.572 510.049 354.918 512.254 357.43 511.581L361.777 510.416L362.137 511.758C362.796 514.22 365.324 515.68 367.787 515.02L388.829 509.382C391.291 508.722 392.751 506.195 392.092 503.734L386.971 484.622C386.311 482.159 383.783 480.7 381.321 481.359L380.719 481.521L380.072 479.104C379.285 476.168 376.269 474.427 373.334 475.214L370.911 475.863L370.782 475.379C370.567 474.579 369.745 474.104 368.945 474.319C368.144 474.533 367.67 475.356 367.884 476.156L368.014 476.64L359.315 478.97L359.186 478.486ZM368.79 479.537L368.92 480.021C369.134 480.821 369.957 481.296 370.757 481.082C371.557 480.867 372.032 480.045 371.818 479.245L371.688 478.761L374.11 478.112C375.445 477.754 376.816 478.545 377.174 479.881L381.207 494.932C381.539 496.173 381.497 497.484 381.085 498.7L380.237 501.21C379.969 502.004 379.324 502.609 378.516 502.825L362.46 507.127L356.653 508.683C356.293 508.78 355.959 508.464 356.034 508.1L356.801 504.354C357.094 502.91 357.051 501.417 356.669 499.991L353.015 486.354C352.657 485.019 353.448 483.648 354.784 483.29L357.194 482.644L357.324 483.128C357.538 483.928 358.361 484.403 359.161 484.189C359.961 483.974 360.436 483.152 360.222 482.352L360.092 481.868L368.79 479.537ZM384.105 494.156L381.496 484.418L382.097 484.257C382.959 484.026 383.842 484.536 384.073 485.398L389.194 504.51C389.425 505.369 388.916 506.253 388.053 506.484L367.01 512.122C366.148 512.353 365.265 511.843 365.034 510.982L364.675 509.64L379.292 505.723C381.07 505.247 382.49 503.915 383.08 502.171L383.927 499.661C384.528 497.884 384.591 495.969 384.105 494.156Z" fill="black"/>
</g>
<g opacity="0.2">
<path fill-rule="evenodd" clip-rule="evenodd" d="M-10.5949 345.466C-8.35707 341.236 -2.89607 340.15 1.08304 342.249L1.11629 342.267L1.14866 342.285C5.26121 344.665 6.70722 349.845 4.19709 353.843C1.80373 357.655 -3.27998 359.399 -7.33694 356.852C-11.1712 354.445 -12.7847 349.606 -10.5949 345.466ZM-7.94308 346.869C-6.61302 344.355 -3.10709 343.442 -0.335698 344.892C2.38471 346.479 3.20326 349.784 1.65631 352.248C-0.0136522 354.908 -3.32656 355.828 -5.74181 354.311C-8.37978 352.655 -9.32666 349.484 -7.94308 346.869Z" fill="black"/>
<path d="M-7.8523 372.705C-8.77669 369.255 -6.70598 365.669 -3.25611 364.744L4.4713 362.674C7.92117 361.749 11.5077 363.82 12.4321 367.27C12.6466 368.07 13.4691 368.545 14.2693 368.33C15.0695 368.116 15.5443 367.294 15.3299 366.493C13.9767 361.443 8.74511 358.423 3.69484 359.776L-4.03257 361.846C-9.08284 363.2 -12.1033 368.431 -10.7501 373.481C-10.5357 374.282 -9.71316 374.757 -8.91296 374.542C-8.11276 374.328 -7.63789 373.505 -7.8523 372.705Z" fill="black"/>
<path d="M13.7077 356.575C13.4932 355.775 13.9681 354.953 14.7683 354.738L20.5639 353.185C24.6482 352.091 28.6551 354.404 29.7495 358.489C29.9639 359.289 29.489 360.111 28.6888 360.326C27.8886 360.54 27.0661 360.065 26.8517 359.265C26.1861 356.781 23.8243 355.417 21.3403 356.083L15.5448 357.636C14.7446 357.85 13.9221 357.375 13.7077 356.575Z" fill="black"/>
<path fill-rule="evenodd" clip-rule="evenodd" d="M9.71227 341.404C11.4283 338.477 15.3914 337.499 18.4212 339.033C18.4371 339.041 18.4528 339.05 18.4685 339.058C18.4842 339.067 18.4996 339.075 18.5149 339.084C21.6326 340.893 22.7952 344.919 20.8225 347.955C19.0203 350.729 15.1018 352.232 11.9859 350.207C9.22198 348.412 7.71978 344.514 9.71227 341.404ZM12.2905 342.938C13.123 341.496 15.2908 340.83 17.0371 341.695C18.7814 342.726 19.2573 344.858 18.3068 346.321C17.177 348.059 15.0171 348.599 13.6204 347.692C11.8815 346.562 11.3418 344.402 12.2492 343.005C12.2636 342.983 12.2773 342.961 12.2905 342.938Z" fill="black"/>
</g>
<g opacity="0.2">
<path fill-rule="evenodd" clip-rule="evenodd" d="M139.155 555.007C139.797 552.61 137.746 550.118 135.137 550.656C131.237 551.458 127.357 554.019 125.317 557.432C121.399 554.019 117.36 551.95 112.022 550.334C110.114 549.756 108.157 550.917 107.656 552.787L101.529 575.654C101.041 577.474 102.084 579.395 103.932 579.919C109.656 581.544 113.616 583.725 117.645 587.811C117.733 587.904 117.833 587.987 117.945 588.056C118.072 588.134 118.207 588.192 118.347 588.23L118.364 588.234C118.599 588.294 118.84 588.295 119.067 588.244C119.099 588.236 119.131 588.228 119.163 588.218C124.696 586.694 129.216 586.786 134.987 588.238L134.999 588.241C136.856 588.702 138.713 587.565 139.2 585.748L145.327 562.88C145.392 562.638 145.43 562.396 145.442 562.157C145.531 560.483 144.391 558.95 142.717 558.561C141.228 558.215 139.805 557.951 138.415 557.768L139.155 555.007ZM111.152 553.205C116.538 554.836 120.378 556.901 124.227 560.488L117.939 583.956C114.085 580.547 110.057 578.54 104.752 577.033C104.518 576.967 104.353 576.705 104.426 576.43L110.554 553.563C110.632 553.273 110.923 553.136 111.152 553.205ZM135.709 585.326C130.907 584.118 126.795 583.774 122.354 584.461C124.349 582.631 127.086 581.362 129.692 581.2C131.195 581.107 132.443 580.054 132.826 578.626L137.631 560.693C139.036 560.862 140.49 561.124 142.039 561.483C142.34 561.553 142.498 561.846 142.429 562.104L136.302 584.971C136.229 585.244 135.957 585.389 135.719 585.329L135.709 585.326ZM127.348 560.434C127.353 560.415 127.358 560.397 127.363 560.378L127.594 559.515C127.664 559.374 127.739 559.235 127.819 559.097C129.347 556.441 132.501 554.261 135.743 553.594C135.88 553.566 136.016 553.605 136.134 553.736C136.256 553.872 136.304 554.054 136.257 554.23L135.057 558.708L129.928 577.849C129.872 578.059 129.696 578.194 129.506 578.206C126.854 578.371 124.113 579.413 121.827 581.037L127.348 560.434Z" fill="black"/>
</g>
<g opacity="0.2">
<path fill-rule="evenodd" clip-rule="evenodd" d="M233.408 155.383C238.217 152.798 244.106 154.374 246.981 159.014L246.997 159.041L247.012 159.067C249.812 163.925 248.207 170.092 243.314 172.722C238.578 175.269 232.349 173.95 229.691 169.006C227.145 164.27 228.464 158.041 233.408 155.383ZM234.829 158.026C238.236 156.194 242.379 157.298 244.422 160.58C246.409 164.046 245.216 168.294 241.893 170.08C238.404 171.956 234.098 170.866 232.334 167.585C230.458 164.096 231.548 159.789 234.829 158.026Z" fill="black"/>
<path d="M220.162 183.609C221.238 179.591 225.257 177.398 229.124 178.435L238.976 181.075C242.994 182.151 245.187 186.17 244.151 190.037C243.939 190.828 244.408 191.64 245.199 191.852C245.99 192.064 246.803 191.595 247.014 190.804C248.463 185.398 245.385 179.722 239.744 178.211L229.891 175.571C224.485 174.122 218.81 177.2 217.298 182.842C217.086 183.632 217.555 184.445 218.346 184.657C219.137 184.869 219.95 184.4 220.162 183.609Z" fill="black"/>
</g>
<g opacity="0.2">
<path d="M328.278 278.642C328.395 277.822 327.825 277.062 327.005 276.945C326.185 276.828 325.425 277.398 325.308 278.218C325.019 280.244 325.7 282.288 327.147 283.735C328.594 285.182 330.638 285.864 332.664 285.574C333.485 285.457 334.054 284.697 333.937 283.877C333.82 283.057 333.06 282.487 332.24 282.604C331.149 282.76 330.048 282.393 329.269 281.614C328.489 280.834 328.122 279.733 328.278 278.642Z" fill="black"/>
<path fill-rule="evenodd" clip-rule="evenodd" d="M323.806 270.49L340.392 287.077C342.042 288.726 344.523 289.221 346.678 288.328C348.834 287.436 350.24 285.334 350.24 283.001L350.242 279.74L354.735 275.246C357.268 272.714 358.69 269.279 358.69 265.697C358.69 262.115 357.268 258.68 354.735 256.147C349.461 250.873 340.91 250.873 335.636 256.147L331.143 260.641L327.882 260.642C325.549 260.643 323.446 262.049 322.554 264.204C321.662 266.36 322.156 268.841 323.806 270.49ZM337.757 258.269C341.86 254.166 348.511 254.166 352.614 258.269C354.584 260.239 355.69 262.911 355.69 265.697C355.69 268.483 354.584 271.155 352.614 273.125L347.805 277.934C347.455 278.214 347.242 278.642 347.242 279.105L347.241 281.975L347.24 283C347.24 284.119 346.565 285.128 345.531 285.557C344.635 285.927 343.622 285.799 342.853 285.244C342.733 285.158 342.62 285.062 342.514 284.956L325.927 268.368C325.135 267.577 324.898 266.386 325.326 265.352C325.754 264.317 326.763 263.642 327.883 263.642L331.778 263.64C332.251 263.64 332.673 263.421 332.948 263.078L337.757 258.269Z" fill="black"/>
</g>
</g>
<defs>
<clipPath id="clip0_426_2294">
<rect width="375" height="712" fill="white"/>
</clipPath>
</defs>
</svg>
