<svg width="20" height="20" viewBox="0 0 20 20" fill="none" xmlns="http://www.w3.org/2000/svg">
<path d="M8.46934 6.46841C8.76223 6.17552 9.23711 6.17552 9.53 6.46841L12.5299 9.46832L12.5426 9.48128C12.6083 9.54986 12.6585 9.62785 12.6931 9.71079C12.7295 9.79778 12.75 9.89309 12.7509 9.99307L12.7509 9.99999L12.7509 10.0069C12.7492 10.1965 12.6759 10.3856 12.5313 10.5303L9.53 13.5316C9.23711 13.8245 8.76223 13.8245 8.46934 13.5316C8.17645 13.2387 8.17645 12.7638 8.46934 12.4709L10.1903 10.75H0.996338C0.582124 10.75 0.246338 10.4142 0.246338 9.99999C0.246338 9.58578 0.582124 9.24999 0.996338 9.24999H10.1903L8.46934 7.52908C8.17645 7.23618 8.17645 6.76131 8.46934 6.46841Z" fill="black"/>
<path d="M16.7304 1.77186L5.76652 4.16996L5.75326 4.17273C5.16895 4.28952 4.74816 4.80227 4.74759 5.39809V7.13582C4.74759 7.55003 4.4118 7.88582 3.99759 7.88582C3.58338 7.88582 3.24759 7.55003 3.24759 7.13582V5.39809C3.24838 4.08976 4.17048 2.96293 5.4521 2.70327L16.4506 0.297596C16.4751 0.292235 16.4999 0.288108 16.5248 0.285229C17.3535 0.189492 18.1833 0.455679 18.8017 1.01564C19.4185 1.57417 19.7652 2.37087 19.7538 3.20269V17.0026C19.7541 17.8138 19.3963 18.5841 18.7761 19.107C18.1558 19.6299 17.3363 19.8524 16.5367 19.7149L5.53216 17.8221C4.21183 17.595 3.24713 16.4498 3.24759 15.1101V12.9722C3.24759 12.558 3.58338 12.2222 3.99759 12.2222C4.4118 12.2222 4.74759 12.558 4.74759 12.9722V15.1101C4.7473 15.7194 5.18599 16.2405 5.78641 16.3438L16.791 18.2366C17.1546 18.2991 17.5272 18.198 17.8093 17.9602C18.0913 17.7224 18.254 17.3722 18.2538 17.0033V3.18523C18.2602 2.783 18.093 2.39754 17.7948 2.12753C17.505 1.86505 17.1188 1.73643 16.7304 1.77186Z" fill="black"/>
</svg>
