<svg width="18" height="18" viewBox="0 0 18 18" fill="none" xmlns="http://www.w3.org/2000/svg">
<path fill-rule="evenodd" clip-rule="evenodd" d="M6.70187 6.70187C7.97093 5.43282 10.0284 5.43267 11.2976 6.70143C12.5668 7.97063 12.5673 10.0289 11.2981 11.2981C10.0289 12.5673 7.97108 12.5673 6.70187 11.2981C6.52351 11.1197 6.37021 10.9258 6.24198 10.7206C5.49242 9.52155 5.59931 7.93991 6.56264 6.84994C6.60721 6.7995 6.65363 6.75012 6.70187 6.70187ZM7.76253 7.76253C8.44595 7.07911 9.55399 7.07912 10.2374 7.76253C10.9208 8.44595 10.9208 9.55399 10.2374 10.2374C9.55398 10.9208 8.44595 10.9208 7.76253 10.2374C7.07911 9.55398 7.07912 8.44595 7.76253 7.76253Z" fill="black"/>
<path fill-rule="evenodd" clip-rule="evenodd" d="M8.03226 0.852679C7.40611 0.226527 6.44941 0.0707425 5.65652 0.467188L5.10652 0.742188C4.423 1.08395 3.98698 1.7757 3.96816 2.53646L3.9501 3.37721C3.94371 3.68063 3.69649 3.92301 3.39193 3.92301H2.55493C1.66857 3.92301 0.882212 4.49146 0.602297 5.3312L0.408478 5.91366C0.16611 6.63854 0.346494 7.43739 0.875184 7.98967L1.45513 8.59562C1.66509 8.81497 1.66127 9.16201 1.4466 9.37668L0.854601 9.96868C0.22845 10.5948 0.0726651 11.5515 0.469111 12.3444L0.744111 12.8944C1.0852 13.5766 1.77743 14.0159 2.54147 14.0318L3.37913 14.0498C3.68255 14.0562 3.92493 14.3035 3.92493 14.608V15.445C3.92493 16.3314 4.49338 17.1177 5.33313 17.3976L5.91613 17.5916C6.64123 17.8335 7.43893 17.6538 7.99056 17.1258L8.59654 16.5458C8.81589 16.3358 9.16294 16.3397 9.3776 16.5543L9.9696 17.1463C10.5958 17.7725 11.5524 17.9283 12.3453 17.5318L12.8953 17.2568C13.5775 16.9157 14.0168 16.2235 14.0328 15.4595L14.0508 14.6218C14.0572 14.3184 14.3044 14.076 14.6089 14.076H15.4459C16.3323 14.076 17.1187 13.5076 17.3986 12.6678L17.5926 12.0848C17.8344 11.3597 17.6547 10.562 17.1267 10.0104L16.5467 9.4044C16.3368 9.18505 16.3406 8.838 16.5553 8.62334L17.1473 8.03134C17.7734 7.40519 17.9292 6.44849 17.5328 5.6556L17.2578 5.1056C16.9167 4.42343 16.2244 3.98416 15.4604 3.96817L14.6227 3.95018C14.3193 3.94378 14.0769 3.69657 14.0769 3.39201V2.55501C14.0769 1.66865 13.5085 0.882289 12.6687 0.602374L12.0862 0.408534C11.3619 0.166374 10.5635 0.3462 10.0121 0.872457L9.40532 1.45321C9.18597 1.66317 8.83893 1.65934 8.62426 1.44468L8.03226 0.852679ZM6.9716 1.91334C6.80175 1.74349 6.54245 1.70127 6.32734 1.80883L5.77734 2.08383C5.59316 2.17592 5.47327 2.3637 5.46773 2.57254L5.44977 3.40881C5.426 4.52924 4.51127 5.42301 3.39193 5.42301H2.55493C2.31542 5.42301 2.10176 5.57676 2.02557 5.80481L1.83113 6.38911C1.76589 6.584 1.81361 6.80082 1.95868 6.95235L2.53873 7.5584C3.31274 8.36705 3.29859 9.64601 2.50726 10.4373L1.91526 11.0293C1.74541 11.1992 1.7032 11.4585 1.81075 11.6736L2.08575 12.2236C2.17857 12.4092 2.36669 12.5279 2.57239 12.5322L3.41073 12.5502C4.53116 12.5739 5.42493 13.4887 5.42493 14.608V15.445C5.42493 15.6845 5.57868 15.8982 5.80674 15.9744L6.38974 16.1684C6.58639 16.2341 6.80314 16.186 6.9533 16.0422L7.55932 15.4622C8.36798 14.6882 9.64694 14.7024 10.4383 15.4937L11.0303 16.0857C11.2001 16.2555 11.4594 16.2977 11.6745 16.1902L12.2245 15.9152C12.4102 15.8224 12.5288 15.6343 12.5331 15.4285L12.5511 14.5902C12.5749 13.4698 13.4896 12.576 14.6089 12.576H15.4459C15.6854 12.576 15.8991 12.4223 15.9753 12.1942L16.1693 11.6112C16.235 11.4145 16.1869 11.1978 16.0432 11.0476L15.4631 10.4416C14.6891 9.63297 14.7033 8.35402 15.4946 7.56268L16.0866 6.97068C16.2564 6.80083 16.2987 6.54153 16.1911 6.32642L15.9161 5.77642C15.8233 5.59078 15.6352 5.47209 15.4295 5.46785L14.5911 5.44984C13.4707 5.42607 12.5769 4.51135 12.5769 3.39201V2.55501C12.5769 2.3155 12.4232 2.10183 12.1951 2.02564L11.6108 1.83121C11.4155 1.76581 11.1984 1.81396 11.048 1.95732L10.4425 2.53681C9.63389 3.31082 8.35493 3.29667 7.5636 2.50534L6.9716 1.91334Z" fill="black"/>
</svg>
