<svg width="18" height="20" viewBox="0 0 18 20" fill="none" xmlns="http://www.w3.org/2000/svg">
<path fill-rule="evenodd" clip-rule="evenodd" d="M7.76241 1.26299C8.44587 0.578242 9.55395 0.57936 10.2373 1.26274L16.9443 7.96974C17.4598 8.48523 17.75 9.18493 17.75 9.91407V18.5001C17.75 18.9143 17.4142 19.2501 17 19.2501H11.5C11.0858 19.2501 10.75 18.9143 10.75 18.5001V14.0001C10.75 13.0333 9.96679 12.2501 9 12.2501C8.03321 12.2501 7.25 13.0333 7.25 14.0001V18.5001C7.25 18.9143 6.91421 19.2501 6.5 19.2501H1C0.585786 19.2501 0.25 18.9143 0.25 18.5001V9.91407C0.25 9.18493 0.540176 8.48523 1.05567 7.96974L7.76241 1.26299C7.76255 1.26285 7.76227 1.26314 7.76241 1.26299ZM9.17667 2.3234C9.07819 2.22491 8.92059 2.22589 8.82401 2.32272L2.11633 9.0304C1.88182 9.2649 1.75 9.5832 1.75 9.91407V17.7501H5.75V14.0001C5.75 12.2049 7.20479 10.7501 9 10.7501C10.7952 10.7501 12.25 12.2049 12.25 14.0001V17.7501H16.25V9.91407C16.25 9.5832 16.1182 9.2649 15.8837 9.0304L9.17667 2.3234Z" fill="white"/>
</svg>
