<svg width="20" height="20" viewBox="0 0 20 20" fill="none" xmlns="http://www.w3.org/2000/svg">
<path d="M12.182 8.1224C12.4749 7.82951 12.4749 7.35463 12.182 7.06174C11.8891 6.76885 11.4142 6.76885 11.1213 7.06174L8.83734 9.34574L7.67897 8.18805C7.38599 7.89525 6.91112 7.89539 6.61831 8.18837C6.3255 8.48135 6.32564 8.95622 6.61862 9.24903L8.30733 10.9367C8.60025 11.2295 9.075 11.2294 9.36783 10.9366L12.182 8.1224Z" fill="black"/>
<path fill-rule="evenodd" clip-rule="evenodd" d="M7.12848 0.996307C7.12848 0.582094 6.79269 0.246307 6.37848 0.246307C5.96427 0.246307 5.62848 0.582094 5.62848 0.996307V1.24673H4.38064C2.86097 1.24673 1.62981 2.47789 1.62981 3.99757V11.0565C1.62981 11.5607 1.51192 12.0588 1.28633 12.5118L0.432458 14.2196C-0.150376 15.3842 0.697579 16.7526 1.99765 16.7526H4.2479V17.4472C4.2479 18.7217 5.27998 19.7538 6.55455 19.7538H17.4471C18.7213 19.7538 19.7537 18.722 19.7537 17.4482V7.55503C19.7537 6.28046 18.7217 5.24838 17.4471 5.24838H17.1356V3.99757C17.1356 2.47789 15.9045 1.24673 14.3848 1.24673H13.131V0.996307C13.131 0.582094 12.7952 0.246307 12.381 0.246307C11.9668 0.246307 11.631 0.582094 11.631 0.996307V1.24673H7.12848V0.996307ZM11.631 2.74673V2.99714C11.631 3.41135 11.9668 3.74714 12.381 3.74714C12.7952 3.74714 13.131 3.41135 13.131 2.99714V2.74673H14.3848C15.0761 2.74673 15.6356 3.30632 15.6356 3.99757V11.7888C15.6356 12.4309 15.4454 13.0585 15.0893 13.5927L14.3548 14.6954C14.1228 15.0438 13.7328 15.2526 13.3144 15.2526H5.00331H1.99765C1.81125 15.2526 1.69085 15.0566 1.7739 14.8908L2.62894 13.1807C2.95744 12.5213 3.12981 11.7947 3.12981 11.0565V3.99757C3.12981 3.30632 3.6894 2.74673 4.38064 2.74673H5.62848V2.99714C5.62848 3.41135 5.96427 3.74714 6.37848 3.74714C6.79269 3.74714 7.12848 3.41135 7.12848 2.99714V2.74673H11.631ZM17.1356 11.7888V6.74838H17.4471C17.8932 6.74838 18.2537 7.10889 18.2537 7.55503V17.4482C18.2537 17.893 17.8935 18.2538 17.4471 18.2538H6.55455C6.10841 18.2538 5.7479 17.8933 5.7479 17.4472V16.7526H13.3144C14.2345 16.7526 15.093 16.293 15.6033 15.527L16.3374 14.4248C16.8576 13.6444 17.1356 12.7273 17.1356 11.7888Z" fill="black"/>
</svg>
