<svg width="20" height="20" viewBox="0 0 20 20" fill="none" xmlns="http://www.w3.org/2000/svg">
<path fill-rule="evenodd" clip-rule="evenodd" d="M3 0.250061C1.48079 0.250061 0.25 1.48085 0.25 3.00006V8.00006C0.25 9.51927 1.48079 10.7501 3 10.7501H8C9.51921 10.7501 10.75 9.51927 10.75 8.00006V3.00006C10.75 1.48085 9.51921 0.250061 8 0.250061H3ZM1.75 3.00006C1.75 2.30927 2.30921 1.75006 3 1.75006H8C8.69079 1.75006 9.25 2.30927 9.25 3.00006V8.00006C9.25 8.69085 8.69079 9.25006 8 9.25006H3C2.30921 9.25006 1.75 8.69085 1.75 8.00006V3.00006Z" fill="black"/>
<path fill-rule="evenodd" clip-rule="evenodd" d="M13.5 11.2501C12.2578 11.2501 11.25 12.2578 11.25 13.5001V16.5001C11.25 17.7423 12.2578 18.7501 13.5 18.7501H16.5C17.7422 18.7501 18.75 17.7423 18.75 16.5001V13.5001C18.75 12.2578 17.7422 11.2501 16.5 11.2501H13.5ZM12.75 13.5001C12.75 13.0863 13.0862 12.7501 13.5 12.7501H16.5C16.9138 12.7501 17.25 13.0863 17.25 13.5001V16.5001C17.25 16.9138 16.9138 17.2501 16.5 17.2501H13.5C13.0862 17.2501 12.75 16.9138 12.75 16.5001V13.5001Z" fill="black"/>
<path fill-rule="evenodd" clip-rule="evenodd" d="M12.25 4.50006C12.25 3.25785 13.2578 2.25006 14.5 2.25006H17.5C18.7422 2.25006 19.75 3.25785 19.75 4.50006V7.50006C19.75 8.74228 18.7422 9.75006 17.5 9.75006H14.5C13.2578 9.75006 12.25 8.74228 12.25 7.50006V4.50006ZM14.5 3.75006C14.0862 3.75006 13.75 4.08627 13.75 4.50006V7.50006C13.75 7.91385 14.0862 8.25006 14.5 8.25006H17.5C17.9138 8.25006 18.25 7.91385 18.25 7.50006V4.50006C18.25 4.08627 17.9138 3.75006 17.5 3.75006H14.5Z" fill="black"/>
<path fill-rule="evenodd" clip-rule="evenodd" d="M4.5 12.2501C3.25779 12.2501 2.25 13.2578 2.25 14.5001V17.5001C2.25 18.7423 3.25779 19.7501 4.5 19.7501H7.5C8.74221 19.7501 9.75 18.7423 9.75 17.5001V14.5001C9.75 13.2578 8.74221 12.2501 7.5 12.2501H4.5ZM3.75 14.5001C3.75 14.0863 4.08621 13.7501 4.5 13.7501H7.5C7.91379 13.7501 8.25 14.0863 8.25 14.5001V17.5001C8.25 17.9138 7.91379 18.2501 7.5 18.2501H4.5C4.08621 18.2501 3.75 17.9138 3.75 17.5001V14.5001Z" fill="black"/>
</svg>
