<svg width="24" height="24" viewBox="0 0 24 24" fill="none" xmlns="http://www.w3.org/2000/svg">
<path d="M13.9427 3.47437C10.1264 2.59457 6.18888 4.34877 4.29072 7.77439C2.39256 11.2 2.99281 15.4686 5.7621 18.2379C8.53138 21.0072 12.8 21.6075 16.2256 19.7093C19.6512 17.8112 21.4054 13.8737 20.5257 10.0574C20.4326 9.65376 20.6844 9.25113 21.088 9.15808C21.4916 9.06503 21.8943 9.3168 21.9873 9.72042C23.0174 14.1887 20.9635 18.7989 16.9526 21.0214C12.9417 23.2438 7.94385 22.541 4.70143 19.2986C1.45902 16.0561 0.756223 11.0583 2.97868 7.04738C5.20114 3.03649 9.81135 0.982598 14.2796 2.01271C14.6832 2.10576 14.935 2.50839 14.842 2.91202C14.7489 3.31565 14.3463 3.56742 13.9427 3.47437Z" fill="black"/>
<path d="M19.1241 2.54169C19.5383 2.54169 19.8741 2.87747 19.8741 3.29169V4.12591H20.7084C21.1226 4.12591 21.4584 4.4617 21.4584 4.87591C21.4584 5.29013 21.1226 5.62591 20.7084 5.62591H19.8741V6.45836C19.8741 6.87257 19.5383 7.20836 19.1241 7.20836C18.7099 7.20836 18.3741 6.87257 18.3741 6.45836V5.62591H17.5417C17.1275 5.62591 16.7917 5.29013 16.7917 4.87591C16.7917 4.4617 17.1275 4.12591 17.5417 4.12591H18.3741V3.29169C18.3741 2.87747 18.7099 2.54169 19.1241 2.54169Z" fill="black"/>
<path fill-rule="evenodd" clip-rule="evenodd" d="M8.75 9.5C8.75 7.70507 10.2051 6.25 12 6.25C13.7949 6.25 15.25 7.70507 15.25 9.5C15.25 11.2949 13.7949 12.75 12 12.75C10.2051 12.75 8.75 11.2949 8.75 9.5ZM12 7.75C11.0335 7.75 10.25 8.5335 10.25 9.5C10.25 10.4665 11.0335 11.25 12 11.25C12.9665 11.25 13.75 10.4665 13.75 9.5C13.75 8.5335 12.9665 7.75 12 7.75Z" fill="black"/>
<path d="M9.78859 13.75C8.49703 13.7506 7.32854 14.5163 6.81248 15.7003C6.64697 16.08 6.82062 16.522 7.20033 16.6875C7.58004 16.853 8.02202 16.6794 8.18753 16.2997C8.46523 15.6626 9.09396 15.2505 9.78894 15.25H14.2107C14.9057 15.2505 15.5348 15.6626 15.8125 16.2997C15.978 16.6794 16.42 16.853 16.7997 16.6875C17.1794 16.522 17.353 16.08 17.1875 15.7003C16.6715 14.5163 15.503 13.7506 14.2114 13.75H9.78859Z" fill="black"/>
</svg>
