<svg width="24" height="24" viewBox="0 0 24 24" fill="none" xmlns="http://www.w3.org/2000/svg">
<path fill-rule="evenodd" clip-rule="evenodd" d="M5 2.25C3.48079 2.25 2.25 3.48079 2.25 5V10C2.25 11.5192 3.48079 12.75 5 12.75H10C11.5192 12.75 12.75 11.5192 12.75 10V5C12.75 3.48079 11.5192 2.25 10 2.25H5ZM3.75 5C3.75 4.30921 4.30921 3.75 5 3.75H10C10.6908 3.75 11.25 4.30921 11.25 5V10C11.25 10.6908 10.6908 11.25 10 11.25H5C4.30921 11.25 3.75 10.6908 3.75 10V5Z" fill="black"/>
<path fill-rule="evenodd" clip-rule="evenodd" d="M15.5 13.25C14.2578 13.25 13.25 14.2578 13.25 15.5V18.5C13.25 19.7422 14.2578 20.75 15.5 20.75H18.5C19.7422 20.75 20.75 19.7422 20.75 18.5V15.5C20.75 14.2578 19.7422 13.25 18.5 13.25H15.5ZM14.75 15.5C14.75 15.0862 15.0862 14.75 15.5 14.75H18.5C18.9138 14.75 19.25 15.0862 19.25 15.5V18.5C19.25 18.9138 18.9138 19.25 18.5 19.25H15.5C15.0862 19.25 14.75 18.9138 14.75 18.5V15.5Z" fill="black"/>
<path fill-rule="evenodd" clip-rule="evenodd" d="M14.25 6.5C14.25 5.25779 15.2578 4.25 16.5 4.25H19.5C20.7422 4.25 21.75 5.25779 21.75 6.5V9.5C21.75 10.7422 20.7422 11.75 19.5 11.75H16.5C15.2578 11.75 14.25 10.7422 14.25 9.5V6.5ZM16.5 5.75C16.0862 5.75 15.75 6.08621 15.75 6.5V9.5C15.75 9.91379 16.0862 10.25 16.5 10.25H19.5C19.9138 10.25 20.25 9.91379 20.25 9.5V6.5C20.25 6.08621 19.9138 5.75 19.5 5.75H16.5Z" fill="black"/>
<path fill-rule="evenodd" clip-rule="evenodd" d="M6.5 14.25C5.25779 14.25 4.25 15.2578 4.25 16.5V19.5C4.25 20.7422 5.25779 21.75 6.5 21.75H9.5C10.7422 21.75 11.75 20.7422 11.75 19.5V16.5C11.75 15.2578 10.7422 14.25 9.5 14.25H6.5ZM5.75 16.5C5.75 16.0862 6.08621 15.75 6.5 15.75H9.5C9.91379 15.75 10.25 16.0862 10.25 16.5V19.5C10.25 19.9138 9.91379 20.25 9.5 20.25H6.5C6.08621 20.25 5.75 19.9138 5.75 19.5V16.5Z" fill="black"/>
</svg>
