<svg width="24" height="24" viewBox="0 0 24 24" fill="none" xmlns="http://www.w3.org/2000/svg">
<path d="M5.49729 7.24841C5.08308 7.24841 4.74729 7.5842 4.74729 7.99841C4.74729 8.41263 5.08308 8.74841 5.49729 8.74841H18.5024C18.9166 8.74841 19.2524 8.41263 19.2524 7.99841C19.2524 7.5842 18.9166 7.24841 18.5024 7.24841H5.49729Z" fill="black"/>
<path d="M4.74763 12C4.74763 11.5858 5.08342 11.25 5.49763 11.25H18.5027C18.9169 11.25 19.2527 11.5858 19.2527 12C19.2527 12.4142 18.9169 12.75 18.5027 12.75H5.49763C5.08342 12.75 4.74763 12.4142 4.74763 12Z" fill="black"/>
<path d="M4.74763 16.0017C4.74763 15.5875 5.08342 15.2517 5.49763 15.2517H18.5027C18.9169 15.2517 19.2527 15.5875 19.2527 16.0017C19.2527 16.4159 18.9169 16.7517 18.5027 16.7517H5.49763C5.08342 16.7517 4.74763 16.4159 4.74763 16.0017Z" fill="black"/>
</svg>
