<svg width="24" height="24" viewBox="0 0 24 24" fill="none" xmlns="http://www.w3.org/2000/svg">
<path d="M14.182 10.1223C14.4749 9.82945 14.4749 9.35457 14.182 9.06168C13.8891 8.76879 13.4143 8.76879 13.1214 9.06168L10.8374 11.3457L9.67899 10.188C9.38601 9.89519 8.91113 9.89533 8.61833 10.1883C8.32552 10.4813 8.32566 10.9562 8.61864 11.249L10.3073 12.9367C10.6003 13.2294 11.075 13.2293 11.3678 12.9365L14.182 10.1223Z" fill="black"/>
<path fill-rule="evenodd" clip-rule="evenodd" d="M9.12849 2.99625C9.12849 2.58203 8.79271 2.24625 8.37849 2.24625C7.96428 2.24625 7.62849 2.58203 7.62849 2.99625V3.24667H6.38066C4.86099 3.24667 3.62983 4.47783 3.62983 5.99751V13.0564C3.62983 13.5607 3.51194 14.0588 3.28635 14.5117L2.43247 16.2195C1.84964 17.3841 2.69759 18.7525 3.99767 18.7525H6.24792V19.4471C6.24792 20.7217 7.27999 21.7537 8.55457 21.7537H19.4471C20.7214 21.7537 21.7538 20.722 21.7538 19.4481V9.55497C21.7538 8.2804 20.7217 7.24832 19.4471 7.24832H19.1357V5.99751C19.1357 4.47783 17.9045 3.24667 16.3848 3.24667H15.131V2.99625C15.131 2.58203 14.7952 2.24625 14.381 2.24625C13.9668 2.24625 13.631 2.58203 13.631 2.99625V3.24667H9.12849V2.99625ZM13.631 4.74667V4.99708C13.631 5.41129 13.9668 5.74708 14.381 5.74708C14.7952 5.74708 15.131 5.41129 15.131 4.99708V4.74667H16.3848C17.0761 4.74667 17.6357 5.30626 17.6357 5.99751V13.7888C17.6357 14.4309 17.4455 15.0585 17.0893 15.5927L16.3549 16.6954C16.1228 17.0438 15.7328 17.2525 15.3144 17.2525H7.00332H3.99767C3.81127 17.2525 3.69087 17.0566 3.77391 16.8907L4.62895 15.1806C4.95746 14.5213 5.12983 13.7946 5.12983 13.0564V5.99751C5.12983 5.30626 5.68941 4.74667 6.38066 4.74667H7.62849V4.99708C7.62849 5.41129 7.96428 5.74708 8.37849 5.74708C8.79271 5.74708 9.12849 5.41129 9.12849 4.99708V4.74667H13.631ZM19.1357 13.7888V8.74832H19.4471C19.8932 8.74832 20.2538 9.10883 20.2538 9.55497V19.4481C20.2538 19.8929 19.8936 20.2537 19.4471 20.2537H8.55457C8.10842 20.2537 7.74792 19.8932 7.74792 19.4471V18.7525H15.3144C16.2345 18.7525 17.093 18.293 17.6033 17.5269L18.3374 16.4247C18.8577 15.6443 19.1357 14.7273 19.1357 13.7888Z" fill="black"/>
</svg>
