<svg width="24" height="24" viewBox="0 0 24 24" fill="none" xmlns="http://www.w3.org/2000/svg">
<path fill-rule="evenodd" clip-rule="evenodd" d="M13.2536 6.59768C13.2421 6.60792 13.2307 6.61857 13.2197 6.62964C13.2086 6.64072 13.1979 6.65205 13.1877 6.66362L4.76409 15.0872L4.7633 15.088C4.4335 15.4165 4.25 15.8619 4.25 16.325V19C4.25 19.4142 4.58579 19.75 5 19.75H7.675C8.13818 19.75 8.58359 19.5665 8.91206 19.2366L17.3564 10.7939C17.3611 10.7894 17.3657 10.7849 17.3703 10.7803C17.3749 10.7757 17.3794 10.7711 17.3838 10.7665L19.2383 8.91237C19.9212 8.22948 19.9212 7.12155 19.2383 6.43866L17.5623 4.76266C16.8794 4.07976 15.7716 4.07976 15.0887 4.76266L13.2536 6.59768ZM16.1493 5.82332C16.2464 5.72621 16.4046 5.72621 16.5017 5.82332L18.1777 7.49932C18.2748 7.59641 18.2748 7.7545 18.1777 7.85161L16.8399 9.18919L14.8117 7.16098L16.1493 5.82332ZM15.7791 10.2497L7.85072 18.1766L7.84926 18.1781C7.8038 18.2238 7.7415 18.25 7.675 18.25H5.75V16.325C5.75 16.2585 5.77621 16.1962 5.82191 16.1507L5.82333 16.1493L13.751 8.22164L15.7791 10.2497Z" fill="black"/>
</svg>
