<svg width="24" height="24" viewBox="0 0 24 24" fill="none" xmlns="http://www.w3.org/2000/svg">
<path fill-rule="evenodd" clip-rule="evenodd" d="M17.75 3.01198C17.75 1.77113 16.437 0.833013 15.2467 1.43061C13.4669 2.32265 11.9242 4.06166 11.3809 5.97403C9.04701 4.83241 6.8282 4.35615 4.04118 4.2663C3.04494 4.23416 2.25 5.04815 2.25 6.01591V17.8529C2.25 18.795 3.00226 19.5876 3.96284 19.6018C6.93728 19.6461 9.13232 20.1867 11.6068 21.6388C11.6613 21.6724 11.7206 21.6993 11.7835 21.7182C11.8547 21.7397 11.9276 21.7501 12 21.75L12.0087 21.75C12.1303 21.7487 12.2465 21.7179 12.3494 21.6637C12.3641 21.656 12.3786 21.6477 12.3928 21.639C14.8674 20.1868 17.0626 19.646 20.0374 19.6008L20.0437 19.6007C21.0002 19.583 21.75 18.7938 21.75 17.8529V6.01589C21.75 5.89061 21.7369 5.76881 21.7121 5.65165C21.5383 4.83148 20.7893 4.23862 19.9306 4.26734C19.1666 4.29323 18.4451 4.34997 17.75 4.44138V3.01198ZM3.99282 5.76552C6.80497 5.85618 8.92662 6.35693 11.25 7.59097V19.7389C8.94756 18.5912 6.74244 18.143 3.98509 18.102C3.86368 18.1002 3.75 17.9948 3.75 17.8529V6.01591C3.75 5.86568 3.87306 5.76166 3.99282 5.76552ZM20.0095 18.1011C17.534 18.1392 15.5035 18.5051 13.4476 19.4112C14.1744 18.2694 15.3321 17.3025 16.5697 16.887C17.2836 16.6472 17.75 15.9773 17.75 15.238V5.95541C18.4504 5.85538 19.1863 5.79344 19.9811 5.76649C20.1356 5.76132 20.25 5.88226 20.25 6.01591V17.8529C20.25 17.9938 20.1373 18.0992 20.0149 18.101L20.0095 18.1011ZM12.75 7.16097C12.7502 7.15138 12.7502 7.14179 12.75 7.13222V6.68507C12.7658 6.60825 12.784 6.53139 12.8045 6.45458C13.1989 4.97365 14.44 3.51269 15.9196 2.77118C15.9821 2.73979 16.053 2.74128 16.1267 2.78917C16.2035 2.83913 16.25 2.92049 16.25 3.01198V5.32969V15.238C16.25 15.3466 16.1824 15.4347 16.0923 15.465C14.833 15.8878 13.6437 16.7457 12.75 17.826V7.16097Z" fill="black"/>
</svg>
