<svg width="24" height="24" viewBox="0 0 24 24" fill="none" xmlns="http://www.w3.org/2000/svg">
<path d="M4.49687 5.18652C3.8064 5.18652 3.24667 5.74626 3.24667 6.43673C3.24667 7.1272 3.8064 7.68694 4.49687 7.68694C5.18735 7.68694 5.74708 7.1272 5.74708 6.43673C5.74708 5.74626 5.18735 5.18652 4.49687 5.18652Z" fill="black"/>
<path d="M8.99875 5.68673C8.58454 5.68673 8.24875 6.02252 8.24875 6.43673C8.24875 6.85095 8.58454 7.18673 8.99875 7.18673H20.0033C20.4175 7.18673 20.7533 6.85095 20.7533 6.43673C20.7533 6.02252 20.4175 5.68673 20.0033 5.68673H8.99875Z" fill="black"/>
<path d="M8.99875 11.25C8.58454 11.25 8.24875 11.5858 8.24875 12C8.24875 12.4142 8.58454 12.75 8.99875 12.75H20.0033C20.4175 12.75 20.7533 12.4142 20.7533 12C20.7533 11.5858 20.4175 11.25 20.0033 11.25H8.99875Z" fill="black"/>
<path d="M8.24875 17.5633C8.24875 17.1491 8.58454 16.8133 8.99875 16.8133H20.0033C20.4175 16.8133 20.7533 17.1491 20.7533 17.5633C20.7533 17.9775 20.4175 18.3133 20.0033 18.3133H8.99875C8.58454 18.3133 8.24875 17.9775 8.24875 17.5633Z" fill="black"/>
<path d="M3.24667 12C3.24667 11.3095 3.8064 10.7498 4.49687 10.7498C5.18735 10.7498 5.74708 11.3095 5.74708 12C5.74708 12.6904 5.18735 13.2502 4.49687 13.2502C3.8064 13.2502 3.24667 12.6904 3.24667 12Z" fill="black"/>
<path d="M4.49687 16.3131C3.8064 16.3131 3.24667 16.8728 3.24667 17.5633C3.24667 18.2538 3.8064 18.8135 4.49687 18.8135C5.18735 18.8135 5.74708 18.2538 5.74708 17.5633C5.74708 16.8728 5.18735 16.3131 4.49687 16.3131Z" fill="black"/>
</svg>
