<svg width="24" height="24" viewBox="0 0 24 24" fill="none" xmlns="http://www.w3.org/2000/svg">
<path d="M10.4693 8.46839C10.7621 8.1755 11.237 8.1755 11.5299 8.46839L14.5298 11.4683L14.5425 11.4813C14.6083 11.5498 14.6584 11.6278 14.693 11.7108C14.7294 11.7978 14.7499 11.8931 14.7508 11.993L14.7508 12L14.7508 12.0069C14.7491 12.1965 14.6758 12.3856 14.5312 12.5303L11.5299 15.5316C11.237 15.8244 10.7621 15.8244 10.4693 15.5316C10.1764 15.2387 10.1764 14.7638 10.4693 14.4709L12.1902 12.75H2.99625C2.58203 12.75 2.24625 12.4142 2.24625 12C2.24625 11.5858 2.58203 11.25 2.99625 11.25H12.1902L10.4693 9.52905C10.1764 9.23616 10.1764 8.76129 10.4693 8.46839Z" fill="black"/>
<path d="M18.7303 3.77184L7.76642 6.16993L7.75317 6.17271C7.16886 6.2895 6.74807 6.80224 6.7475 7.39807V9.13579C6.7475 9.55001 6.41171 9.88579 5.9975 9.88579C5.58328 9.88579 5.2475 9.55001 5.2475 9.13579V7.39807C5.24829 6.08974 6.17039 4.96291 7.452 4.70324L18.4505 2.29757C18.475 2.29221 18.4998 2.28809 18.5247 2.28521C19.3534 2.18947 20.1832 2.45566 20.8016 3.01562C21.4184 3.57414 21.7652 4.37085 21.7537 5.20266V19.0026C21.754 19.8137 21.3962 20.5841 20.776 21.107C20.1558 21.6299 19.3362 21.8524 18.5366 21.7149L7.53207 19.8221C6.21174 19.595 5.24704 18.4498 5.2475 17.1101V14.9722C5.2475 14.558 5.58328 14.2222 5.9975 14.2222C6.41171 14.2222 6.7475 14.558 6.7475 14.9722V17.1101C6.74721 17.7193 7.1859 18.2405 7.78632 18.3438L18.7909 20.2366C19.1545 20.2991 19.5271 20.198 19.8092 19.9602C20.0912 19.7224 20.2539 19.3722 20.2537 19.0033V5.18521C20.2602 4.78298 20.0929 4.39752 19.7948 4.1275C19.5049 3.86502 19.1187 3.73641 18.7303 3.77184Z" fill="black"/>
</svg>
