<svg width="24" height="24" viewBox="0 0 24 24" fill="none" xmlns="http://www.w3.org/2000/svg">
<path fill-rule="evenodd" clip-rule="evenodd" d="M9.70194 9.70184C10.971 8.43279 13.0284 8.43264 14.2977 9.7014C15.5669 10.9706 15.5673 13.0288 14.2981 14.298C13.0289 15.5672 10.9711 15.5672 9.70194 14.298C9.52358 14.1197 9.37028 13.9257 9.24204 13.7206C8.49249 12.5215 8.59938 10.9399 9.5627 9.84991C9.60728 9.79947 9.6537 9.75009 9.70194 9.70184ZM10.7626 10.7625C11.446 10.0791 12.5541 10.0791 13.2375 10.7625C13.9209 11.4459 13.9209 12.554 13.2375 13.2374C12.5541 13.9208 11.446 13.9208 10.7626 13.2374C10.0792 12.554 10.0792 11.4459 10.7626 10.7625Z" fill="black"/>
<path fill-rule="evenodd" clip-rule="evenodd" d="M11.0323 3.85265C10.4062 3.2265 9.44948 3.07071 8.65659 3.46716L8.10659 3.74216C7.42307 4.08392 6.98705 4.77567 6.96823 5.53643L6.95017 6.37718C6.94377 6.6806 6.69656 6.92298 6.392 6.92298H5.555C4.66864 6.92298 3.88228 7.49143 3.60237 8.33117L3.40855 8.91363C3.16618 9.63851 3.34656 10.4374 3.87525 10.9896L4.4552 11.5956C4.66516 11.8149 4.66133 12.162 4.44667 12.3766L3.85467 12.9686C3.22852 13.5948 3.07273 14.5515 3.46918 15.3444L3.74418 15.8944C4.08527 16.5766 4.7775 17.0158 5.54154 17.0318L6.3792 17.0498C6.68262 17.0562 6.925 17.3034 6.925 17.608V18.445C6.925 19.3313 7.49345 20.1177 8.3332 20.3976L8.9162 20.5916C9.6413 20.8335 10.439 20.6538 10.9906 20.1258L11.5966 19.5458C11.816 19.3358 12.163 19.3396 12.3777 19.5543L12.9697 20.1463C13.5958 20.7725 14.5525 20.9282 15.3454 20.5318L15.8954 20.2568C16.5776 19.9157 17.0168 19.2235 17.0328 18.4594L17.0508 17.6218C17.0572 17.3184 17.3044 17.076 17.609 17.076H18.446C19.3324 17.076 20.1187 16.5075 20.3986 15.6678L20.5926 15.0848C20.8345 14.3597 20.6548 13.562 20.1268 13.0104L19.5468 12.4044C19.3368 12.185 19.3407 11.838 19.5553 11.6233L20.1473 11.0313C20.7735 10.4052 20.9293 9.44846 20.5328 8.65557L20.2578 8.10557C19.9167 7.4234 19.2245 6.98413 18.4605 6.96814L17.6228 6.95014C17.3194 6.94375 17.077 6.69654 17.077 6.39198V5.55498C17.077 4.66862 16.5085 3.88226 15.6688 3.60234L15.0863 3.4085C14.362 3.16634 13.5636 3.34617 13.0122 3.87243L12.4054 4.45318C12.186 4.66314 11.839 4.65931 11.6243 4.44465L11.0323 3.85265ZM9.97167 4.91331C9.80182 4.74346 9.54252 4.70124 9.32741 4.8088L8.77741 5.0838C8.59323 5.17589 8.47334 5.36367 8.4678 5.57251L8.44983 6.40878C8.42606 7.52921 7.51134 8.42298 6.392 8.42298H5.555C5.31549 8.42298 5.10183 8.57673 5.02563 8.80478L4.8312 9.38908C4.76596 9.58397 4.81368 9.80079 4.95875 9.95232L5.5388 10.5584C6.31281 11.367 6.29866 12.646 5.50733 13.4373L4.91533 14.0293C4.74548 14.1992 4.70327 14.4585 4.81082 14.6736L5.08582 15.2236C5.17864 15.4092 5.36676 15.5279 5.57246 15.5321L6.4108 15.5501C7.53123 15.5739 8.425 16.4886 8.425 17.608V18.445C8.425 18.6845 8.57875 18.8982 8.80681 18.9743L9.38981 19.1683C9.58646 19.234 9.80321 19.1859 9.95337 19.0422L10.5594 18.4622C11.368 17.6882 12.647 17.7023 13.4383 18.4936L14.0303 19.0856C14.2002 19.2555 14.4595 19.2977 14.6746 19.1902L15.2246 18.9152C15.4102 18.8223 15.5289 18.6342 15.5332 18.4285L15.5512 17.5902C15.5749 16.4697 16.4897 15.576 17.609 15.576H18.446C18.6855 15.576 18.8992 15.4222 18.9754 15.1942L19.1694 14.6112C19.2351 14.4145 19.187 14.1978 19.0432 14.0476L18.4632 13.4416C17.6892 12.6329 17.7033 11.354 18.4947 10.5626L19.0867 9.97065C19.2565 9.8008 19.2987 9.5415 19.1912 9.32639L18.9162 8.77639C18.8234 8.59075 18.6352 8.47206 18.4295 8.46782L17.5912 8.44981C16.4708 8.42604 15.577 7.51132 15.577 6.39198V5.55498C15.577 5.31547 15.4232 5.1018 15.1952 5.02561L14.6109 4.83118C14.4156 4.76578 14.1985 4.81393 14.0481 4.95729L13.4426 5.53678C12.634 6.31079 11.355 6.29663 10.5637 5.50531L9.97167 4.91331Z" fill="black"/>
</svg>
