<svg width="24" height="24" viewBox="0 0 24 24" fill="none" xmlns="http://www.w3.org/2000/svg">
<path fill-rule="evenodd" clip-rule="evenodd" d="M12 3.74628C7.44158 3.74628 3.74625 7.44161 3.74625 12C3.74625 16.5584 7.44158 20.2538 12 20.2538C16.5584 20.2538 20.2537 16.5584 20.2537 12C20.2537 7.44161 16.5584 3.74628 12 3.74628ZM2.24625 12C2.24625 6.61318 6.61315 2.24628 12 2.24628C17.3868 2.24628 21.7537 6.61318 21.7537 12C21.7537 17.3869 17.3868 21.7538 12 21.7538C6.61315 21.7538 2.24625 17.3869 2.24625 12Z" fill="black"/>
<path fill-rule="evenodd" clip-rule="evenodd" d="M12 5.24753C12.4142 5.24753 12.75 5.58331 12.75 5.99753V11.4594L15.6925 12.44C16.0855 12.5709 16.2979 12.9956 16.167 13.3886C16.036 13.7816 15.6113 13.994 15.2183 13.863L11.7629 12.7116C11.4566 12.6095 11.25 12.3229 11.25 12V5.99753C11.25 5.58331 11.5858 5.24753 12 5.24753Z" fill="black"/>
</svg>
