<svg width="24" height="24" viewBox="0 0 24 24" fill="none" xmlns="http://www.w3.org/2000/svg">
<path fill-rule="evenodd" clip-rule="evenodd" d="M1.66095 17.1706L9.31981 3.76683L9.32235 3.76241C10.5084 1.69303 13.4931 1.69345 14.6784 3.76368L14.6802 3.76683L22.3392 17.1709C23.5136 19.2268 22.0318 21.7853 19.6655 21.7899L19.659 21.7899H4.341C1.97019 21.7899 0.483921 19.2288 1.66095 17.1706ZM13.3798 4.51447L13.5925 4.88668L21.0368 17.9149C21.6412 18.9732 20.8768 20.2899 19.659 20.2899L19.6533 20.2899H4.341C3.12181 20.2899 2.35808 18.9731 2.96305 17.9153L2.96549 17.911L5.85691 12.8507L10.6223 4.51082C11.2314 3.44398 12.7686 3.44398 13.3777 4.51082L13.3798 4.51447ZM12 8.63C12.4142 8.63 12.75 8.96579 12.75 9.38V13.12C12.75 13.5342 12.4142 13.87 12 13.87C11.5858 13.87 11.25 13.5342 11.25 13.12V9.38C11.25 8.96579 11.5858 8.63 12 8.63ZM13 16.38C13 16.9323 12.5523 17.38 12 17.38C11.4477 17.38 11 16.9323 11 16.38C11 15.8277 11.4477 15.38 12 15.38C12.5523 15.38 13 15.8277 13 16.38Z" fill="black"/>
</svg>
