<svg width="24" height="24" viewBox="0 0 24 24" fill="none" xmlns="http://www.w3.org/2000/svg">
<path d="M11.0086 10.4996C10.5944 10.4996 10.2586 10.8354 10.2586 11.2496C10.2586 11.6638 10.5944 11.9996 11.0086 11.9996H11.4091V14.7514H10.9996C10.5854 14.7514 10.2496 15.0872 10.2496 15.5014C10.2496 15.9156 10.5854 16.2514 10.9996 16.2514H13.3099C13.7241 16.2514 14.0599 15.9156 14.0599 15.5014C14.0599 15.0872 13.7241 14.7514 13.3099 14.7514H12.9091V11.2496C12.9091 10.8354 12.5733 10.4996 12.1591 10.4996H11.0086Z" fill="black"/>
<path d="M11.85 9.25C12.4023 9.25 12.85 8.80229 12.85 8.25C12.85 7.69772 12.4023 7.25 11.85 7.25C11.2977 7.25 10.85 7.69772 10.85 8.25C10.85 8.80229 11.2977 9.25 11.85 9.25Z" fill="black"/>
<path fill-rule="evenodd" clip-rule="evenodd" d="M2.24625 12C2.24625 6.61318 6.61315 2.24628 12 2.24628C17.3868 2.24628 21.7537 6.61318 21.7537 12C21.7537 17.3869 17.3868 21.7538 12 21.7538C6.61315 21.7538 2.24625 17.3869 2.24625 12ZM12 3.74628C7.44158 3.74628 3.74625 7.44161 3.74625 12C3.74625 16.5584 7.44158 20.2538 12 20.2538C16.5584 20.2538 20.2537 16.5584 20.2537 12C20.2537 7.44161 16.5584 3.74628 12 3.74628Z" fill="black"/>
</svg>
