<svg width="24" height="24" viewBox="0 0 24 24" fill="none" xmlns="http://www.w3.org/2000/svg">
<path d="M12 1.25C12.4142 1.25 12.75 1.58579 12.75 2V4C12.75 4.41421 12.4142 4.75 12 4.75C11.5858 4.75 11.25 4.41421 11.25 4V2C11.25 1.58579 11.5858 1.25 12 1.25Z" fill="black"/>
<path fill-rule="evenodd" clip-rule="evenodd" d="M16.0658 7.93414C13.8203 5.68863 10.1796 5.68863 7.9341 7.93414C5.68859 10.1797 5.68859 13.8204 7.9341 16.0659C10.1796 18.3114 13.8203 18.3114 16.0658 16.0659C18.3113 13.8204 18.3113 10.1797 16.0658 7.93414ZM15.0052 8.9948C13.3454 7.33507 10.6545 7.33507 8.99476 8.9948C7.33503 10.6545 7.33503 13.3455 8.99476 15.0052C10.6545 16.6649 13.3454 16.6649 15.0052 15.0052C16.6649 13.3455 16.6649 10.6545 15.0052 8.9948Z" fill="black"/>
<path d="M12.75 20C12.75 19.5858 12.4142 19.25 12 19.25C11.5858 19.25 11.25 19.5858 11.25 20V22C11.25 22.4142 11.5858 22.75 12 22.75C12.4142 22.75 12.75 22.4142 12.75 22V20Z" fill="black"/>
<path d="M19.6003 4.39967C19.8932 4.69256 19.8932 5.16744 19.6003 5.46033L18.8903 6.17033C18.5974 6.46322 18.1226 6.46322 17.8297 6.17033C17.5368 5.87744 17.5368 5.40256 17.8297 5.10967L18.5397 4.39967C18.8326 4.10678 19.3074 4.10678 19.6003 4.39967Z" fill="black"/>
<path d="M6.17033 18.8903C6.46322 18.5974 6.46322 18.1226 6.17033 17.8297C5.87744 17.5368 5.40256 17.5368 5.10967 17.8297L4.39967 18.5397C4.10678 18.8326 4.10678 19.3074 4.39967 19.6003C4.69256 19.8932 5.16744 19.8932 5.46033 19.6003L6.17033 18.8903Z" fill="black"/>
<path d="M19.25 12C19.25 11.5858 19.5858 11.25 20 11.25H22C22.4142 11.25 22.75 11.5858 22.75 12C22.75 12.4142 22.4142 12.75 22 12.75H20C19.5858 12.75 19.25 12.4142 19.25 12Z" fill="black"/>
<path d="M2 11.25C1.58579 11.25 1.25 11.5858 1.25 12C1.25 12.4142 1.58579 12.75 2 12.75H4C4.41421 12.75 4.75 12.4142 4.75 12C4.75 11.5858 4.41421 11.25 4 11.25H2Z" fill="black"/>
<path d="M17.8297 17.8297C18.1226 17.5368 18.5974 17.5368 18.8903 17.8297L19.6003 18.5397C19.8932 18.8326 19.8932 19.3074 19.6003 19.6003C19.3074 19.8932 18.8326 19.8932 18.5397 19.6003L17.8297 18.8903C17.5368 18.5974 17.5368 18.1226 17.8297 17.8297Z" fill="black"/>
<path d="M5.46033 4.39967C5.16744 4.10678 4.69256 4.10678 4.39967 4.39967C4.10678 4.69256 4.10678 5.16744 4.39967 5.46033L5.10967 6.17033C5.40256 6.46322 5.87744 6.46322 6.17033 6.17033C6.46322 5.87744 6.46322 5.40256 6.17033 5.10967L5.46033 4.39967Z" fill="black"/>
</svg>
