<svg width="24" height="24" viewBox="0 0 24 24" fill="none" xmlns="http://www.w3.org/2000/svg">
<path d="M12 2.25C12.4142 2.25 12.75 2.58579 12.75 3V4.77875L13.6376 3.89079C13.9304 3.59783 14.4053 3.59772 14.6982 3.89055C14.9912 4.18337 14.9913 4.65825 14.6985 4.95121L12.75 6.90056V10.7008L16.0422 8.79953L16.7545 6.13904C16.8616 5.73892 17.2728 5.50139 17.673 5.60851C18.0731 5.71564 18.3106 6.12684 18.2035 6.52696L17.8791 7.73876L19.6249 6.73052C19.9836 6.52338 20.4423 6.64623 20.6495 7.00493C20.8566 7.36362 20.7338 7.82233 20.3751 8.02948L18.6277 9.03859L19.841 9.36353C20.2411 9.47069 20.4786 9.88191 20.3715 10.282C20.2643 10.6821 19.8531 10.9196 19.453 10.8125L16.7907 10.0995L13.4997 12L16.7907 13.9005L19.453 13.1875C19.8531 13.0804 20.2643 13.3179 20.3715 13.718C20.4786 14.1181 20.2411 14.5293 19.841 14.6365L18.6277 14.9614L20.3751 15.9705C20.7338 16.1777 20.8566 16.6364 20.6495 16.9951C20.4423 17.3538 19.9836 17.4766 19.6249 17.2695L17.8791 16.2612L18.2035 17.473C18.3106 17.8732 18.0731 18.2844 17.673 18.3915C17.2728 18.4986 16.8616 18.2611 16.7545 17.861L16.0422 15.2005L12.75 13.2992V17.0994L14.6985 19.0488C14.9913 19.3418 14.9912 19.8166 14.6982 20.1095C14.4053 20.4023 13.9304 20.4022 13.6376 20.1092L12.75 19.2213V21C12.75 21.4142 12.4142 21.75 12 21.75C11.5858 21.75 11.25 21.4142 11.25 21V19.2213L10.3625 20.1092C10.0696 20.4022 9.59476 20.4023 9.3018 20.1095C9.00883 19.8166 9.00873 19.3418 9.30155 19.0488L11.25 17.0994V13.2992L7.95777 15.2005L7.24549 17.861C7.13837 18.2611 6.72716 18.4986 6.32704 18.3915C5.92692 18.2844 5.6894 17.8732 5.79652 17.473L6.12095 16.2612L4.37508 17.2695C4.01638 17.4766 3.55767 17.3538 3.35053 16.9951C3.14338 16.6364 3.26623 16.1777 3.62493 15.9705L5.3723 14.9614L4.15898 14.6365C3.75887 14.5293 3.52138 14.1181 3.62853 13.718C3.73569 13.3179 4.14691 13.0804 4.54703 13.1875L7.20933 13.9005L10.5003 12L7.20933 10.0995L4.54703 10.8125C4.14691 10.9196 3.73569 10.6821 3.62853 10.282C3.52138 9.88191 3.75887 9.47069 4.15898 9.36353L5.3723 9.03858L3.62493 8.02948C3.26623 7.82233 3.14338 7.36362 3.35053 7.00493C3.55767 6.64623 4.01638 6.52338 4.37508 6.73052L6.12095 7.73876L5.79652 6.52696C5.6894 6.12684 5.92692 5.71564 6.32704 5.60851C6.72716 5.50139 7.13837 5.73892 7.24549 6.13904L7.95777 8.79953L11.25 10.7008V6.90056L9.30155 4.95121C9.00873 4.65825 9.00883 4.18337 9.3018 3.89055C9.59476 3.59772 10.0696 3.59783 10.3625 3.89079L11.25 4.77875V3C11.25 2.58579 11.5858 2.25 12 2.25Z" fill="black"/>
</svg>
